HIERARCHY
ROOT Hips
{
	OFFSET 0.000000 83.214638 0.000000
	CHANNELS 6 Xposition Yposition Zposition Xrotation Yrotation Zrotation
	JOINT Pelvis
	{
		OFFSET 0.000000 0.000000 0.000000
		CHANNELS 3 Xrotation Yrotation Zrotation
		JOINT LeftUpLeg
		{
			OFFSET 8.479700 -4.795502 -0.379100
			CHANNELS 3 Xrotation Yrotation Zrotation
			JOINT LeftLeg
			{
				OFFSET 0.024144 -32.555107 0.112900
				CHANNELS 3 Xrotation Yrotation Zrotation
				JOINT LeftFoot
				{
					OFFSET -0.024144 -32.638630 -3.012600
					CHANNELS 3 Xrotation Yrotation Zrotation
					JOINT LeftToeBase
					{
						OFFSET 0.970200 -13.225400 11.864200
						CHANNELS 3 Xrotation Yrotation Zrotation
						End Site
						{
							OFFSET 0.000000 12.319262 0.000000
						}
					}
					JOINT LFootTongue
					{
						OFFSET 1.142400 -1.059800 6.665200
						CHANNELS 3 Xrotation Yrotation Zrotation
						End Site
						{
							OFFSET 0.000000 12.319262 0.000000
						}
					}
				}
				JOINT LeftPantLeg
				{
					OFFSET 0.918482 -16.533964 -2.284700
					CHANNELS 3 Xrotation Yrotation Zrotation
					End Site
					{
						OFFSET 0.350399 24.744368 0.000000
					}
				}
			}
		}
		JOINT RightUpLeg
		{
			OFFSET -8.479700 -4.795502 -0.379100
			CHANNELS 3 Xrotation Yrotation Zrotation
			JOINT RightLeg
			{
				OFFSET -0.023144 -32.555092 0.112900
				CHANNELS 3 Xrotation Yrotation Zrotation
				JOINT RightFoot
				{
					OFFSET 0.023144 -32.638641 -3.012700
					CHANNELS 3 Xrotation Yrotation Zrotation
					JOINT RightToeBase
					{
						OFFSET -0.970200 -13.225400 11.864200
						CHANNELS 3 Xrotation Yrotation Zrotation
						End Site
						{
							OFFSET 0.000000 12.319244 0.000000
						}
					}
					JOINT RFootTongue
					{
						OFFSET -1.142200 -1.059800 6.665200
						CHANNELS 3 Xrotation Yrotation Zrotation
						End Site
						{
							OFFSET 0.000000 12.319243 0.000000
						}
					}
				}
				JOINT RightPantLeg
				{
					OFFSET -0.919482 -16.533978 -2.284800
					CHANNELS 3 Xrotation Yrotation Zrotation
					End Site
					{
						OFFSET -0.350400 24.744419 0.000000
					}
				}
			}
		}
	}
	JOINT Spine
	{
		OFFSET 0.000000 7.722000 1.166200
		CHANNELS 3 Xrotation Yrotation Zrotation
		JOINT Spine1
		{
			OFFSET 0.000000 12.024101 0.248800
			CHANNELS 3 Xrotation Yrotation Zrotation
			JOINT Spine2
			{
				OFFSET 0.000000 11.502998 -0.491200
				CHANNELS 3 Xrotation Yrotation Zrotation
				JOINT Neck
				{
					OFFSET 0.000000 18.430702 -3.123100
					CHANNELS 3 Xrotation Yrotation Zrotation
					JOINT Head
					{
						OFFSET 0.000000 9.051102 1.034000
						CHANNELS 3 Xrotation Yrotation Zrotation
						JOINT HairB
						{
							OFFSET 0.208400 24.786102 24.822300
							CHANNELS 3 Xrotation Yrotation Zrotation
							End Site
							{
								OFFSET 0.000000 32.263779 0.000000
							}
						}
						JOINT HairA
						{
							OFFSET -7.081100 24.428299 23.196600
							CHANNELS 3 Xrotation Yrotation Zrotation
							End Site
							{
								OFFSET 0.000000 32.263779 0.000000
							}
						}
						JOINT Hat
						{
							OFFSET 16.728800 15.048294 -15.439601
							CHANNELS 3 Xrotation Yrotation Zrotation
							End Site
							{
								OFFSET 0.000000 32.263779 0.000000
							}
						}
					}
				}
				JOINT LeftShoulder
				{
					OFFSET 6.197800 13.665199 -4.064700
					CHANNELS 3 Xrotation Yrotation Zrotation
					JOINT LeftArm
					{
						OFFSET 7.778100 -0.187103 -1.709300
						CHANNELS 3 Xrotation Yrotation Zrotation
						JOINT LeftForeArm
						{
							OFFSET 22.049376 0.000000 0.000000
							CHANNELS 3 Xrotation Yrotation Zrotation
							JOINT LeftHand
							{
								OFFSET 23.009392 0.000000 0.000000
								CHANNELS 3 Xrotation Yrotation Zrotation
								JOINT LeftHandThumb1
								{
									OFFSET 3.507191 -2.063065 3.133727
									CHANNELS 3 Xrotation Yrotation Zrotation
									JOINT LeftHandThumb2
									{
										OFFSET 3.101337 -1.790558 1.790558
										CHANNELS 3 Xrotation Yrotation Zrotation
										JOINT LeftHandThumb3
										{
											OFFSET 3.058640 -1.765907 1.765906
											CHANNELS 3 Xrotation Yrotation Zrotation
											End Site
											{
												OFFSET -0.415260 3.926476 -0.049563
											}
										}
									}
								}
								JOINT LeftHandIndex1
								{
									OFFSET 11.334419 -0.901459 3.706815
									CHANNELS 3 Xrotation Yrotation Zrotation
									JOINT LeftHandIndex2
									{
										OFFSET 3.283112 0.000000 0.000000
										CHANNELS 3 Xrotation Yrotation Zrotation
										JOINT LeftHandIndex3
										{
											OFFSET 3.323853 0.000000 0.000000
											CHANNELS 3 Xrotation Yrotation Zrotation
											End Site
											{
												OFFSET -1.135597 3.097809 0.402452
											}
										}
									}
								}
								JOINT LeftHandMiddle1
								{
									OFFSET 11.335861 0.000000 0.000000
									CHANNELS 3 Xrotation Yrotation Zrotation
									JOINT LeftHandMiddle2
									{
										OFFSET 3.410492 0.000000 0.000000
										CHANNELS 3 Xrotation Yrotation Zrotation
										JOINT LeftHandMiddle3
										{
											OFFSET 3.312172 0.000000 0.000000
											CHANNELS 3 Xrotation Yrotation Zrotation
											End Site
											{
												OFFSET -1.150200 3.080154 0.400270
											}
										}
									}
								}
								JOINT LeftHandRing1
								{
									OFFSET 11.514786 -0.013176 -3.003090
									CHANNELS 3 Xrotation Yrotation Zrotation
									JOINT LeftHandRing2
									{
										OFFSET 3.053307 0.000000 0.000000
										CHANNELS 3 Xrotation Yrotation Zrotation
										JOINT LeftHandRing3
										{
											OFFSET 3.295807 0.000000 0.000000
											CHANNELS 3 Xrotation Yrotation Zrotation
											End Site
											{
												OFFSET -1.281006 3.013344 0.375733
											}
										}
									}
								}
								JOINT LeftHandPinky1
								{
									OFFSET 10.518692 -0.960396 -5.730441
									CHANNELS 3 Xrotation Yrotation Zrotation
									JOINT LeftHandPinky2
									{
										OFFSET 2.861649 0.000000 0.000000
										CHANNELS 3 Xrotation Yrotation Zrotation
										JOINT LeftHandPinky3
										{
											OFFSET 2.863380 0.000000 0.000000
											CHANNELS 3 Xrotation Yrotation Zrotation
											End Site
											{
												OFFSET -0.843597 2.711159 0.369971
											}
										}
									}
								}
							}
							JOINT LSleeve
							{
								OFFSET 6.676277 -0.344902 -1.011730
								CHANNELS 3 Xrotation Yrotation Zrotation
								End Site
								{
									OFFSET 0.000000 14.885353 0.000000
								}
							}
						}
					}
				}
				JOINT RightShoulder
				{
					OFFSET -6.197800 13.665199 -4.064700
					CHANNELS 3 Xrotation Yrotation Zrotation
					JOINT RightArm
					{
						OFFSET -7.778100 -0.187103 -1.709300
						CHANNELS 3 Xrotation Yrotation Zrotation
						JOINT RightForeArm
						{
							OFFSET -22.049376 0.000000 0.000000
							CHANNELS 3 Xrotation Yrotation Zrotation
							JOINT RightHand
							{
								OFFSET -23.009392 0.000000 0.000000
								CHANNELS 3 Xrotation Yrotation Zrotation
								JOINT RightHandThumb1
								{
									OFFSET -3.507191 -2.063065 3.133727
									CHANNELS 3 Xrotation Yrotation Zrotation
									JOINT RightHandThumb2
									{
										OFFSET -3.101337 -1.790558 1.790558
										CHANNELS 3 Xrotation Yrotation Zrotation
										JOINT RightHandThumb3
										{
											OFFSET -3.058640 -1.765907 1.765906
											CHANNELS 3 Xrotation Yrotation Zrotation
											End Site
											{
												OFFSET 0.415260 3.926476 -0.049563
											}
										}
									}
								}
								JOINT RightHandIndex1
								{
									OFFSET -11.334419 -0.901459 3.706815
									CHANNELS 3 Xrotation Yrotation Zrotation
									JOINT RightHandIndex2
									{
										OFFSET -3.283112 0.000000 0.000000
										CHANNELS 3 Xrotation Yrotation Zrotation
										JOINT RightHandIndex3
										{
											OFFSET -3.323853 0.000000 0.000000
											CHANNELS 3 Xrotation Yrotation Zrotation
											End Site
											{
												OFFSET 1.135597 3.097809 0.402452
											}
										}
									}
								}
								JOINT RightHandMiddle1
								{
									OFFSET -11.335861 0.000000 0.000000
									CHANNELS 3 Xrotation Yrotation Zrotation
									JOINT RightHandMiddle2
									{
										OFFSET -3.410492 0.000000 0.000000
										CHANNELS 3 Xrotation Yrotation Zrotation
										JOINT RightHandMiddle3
										{
											OFFSET -3.312172 0.000000 0.000000
											CHANNELS 3 Xrotation Yrotation Zrotation
											End Site
											{
												OFFSET 1.150200 3.080154 0.400270
											}
										}
									}
								}
								JOINT RightHandRing1
								{
									OFFSET -11.514786 -0.013176 -3.003090
									CHANNELS 3 Xrotation Yrotation Zrotation
									JOINT RightHandRing2
									{
										OFFSET -3.053307 0.000000 0.000000
										CHANNELS 3 Xrotation Yrotation Zrotation
										JOINT RightHandRing3
										{
											OFFSET -3.295807 0.000000 0.000000
											CHANNELS 3 Xrotation Yrotation Zrotation
											End Site
											{
												OFFSET 1.281006 3.013344 0.375733
											}
										}
									}
								}
								JOINT RightHandPinky1
								{
									OFFSET -10.518692 -0.960396 -5.730441
									CHANNELS 3 Xrotation Yrotation Zrotation
									JOINT RightHandPinky2
									{
										OFFSET -2.861649 0.000000 0.000000
										CHANNELS 3 Xrotation Yrotation Zrotation
										JOINT RightHandPinky3
										{
											OFFSET -2.863380 0.000000 0.000000
											CHANNELS 3 Xrotation Yrotation Zrotation
											End Site
											{
												OFFSET 0.843597 2.711159 0.369971
											}
										}
									}
								}
							}
							JOINT RSleeve
							{
								OFFSET -6.676277 -0.344902 -1.011730
								CHANNELS 3 Xrotation Yrotation Zrotation
								End Site
								{
									OFFSET 0.000000 14.885353 0.000000
								}
							}
						}
					}
				}
				JOINT Backpack
				{
					OFFSET 0.000000 -2.471497 36.677502
					CHANNELS 3 Xrotation Yrotation Zrotation
					End Site
					{
						OFFSET 0.000000 20.427315 0.000000
					}
				}
				JOINT Hood
				{
					OFFSET 0.000000 18.754097 -10.431000
					CHANNELS 3 Xrotation Yrotation Zrotation
					JOINT Hood1
					{
						OFFSET 0.000000 -5.011002 -7.685901
						CHANNELS 3 Xrotation Yrotation Zrotation
						End Site
						{
							OFFSET 0.000000 9.175140 0.000000
						}
					}
				}
				JOINT LHoodieString
				{
					OFFSET 5.250500 16.397697 3.089900
					CHANNELS 3 Xrotation Yrotation Zrotation
					JOINT LHoodieString1
					{
						OFFSET 0.257700 -6.364304 3.694600
						CHANNELS 3 Xrotation Yrotation Zrotation
						JOINT LHoodieString2
						{
							OFFSET 0.000000 -9.643799 2.679100
							CHANNELS 3 Xrotation Yrotation Zrotation
							End Site
							{
								OFFSET 0.000000 10.009018 0.000000
							}
						}
					}
				}
				JOINT RHoodieString
				{
					OFFSET -5.250500 16.397697 3.089900
					CHANNELS 3 Xrotation Yrotation Zrotation
					JOINT RHoodieString1
					{
						OFFSET -0.257700 -6.364304 3.694600
						CHANNELS 3 Xrotation Yrotation Zrotation
						JOINT RHoodieString2
						{
							OFFSET 0.000000 -9.643799 2.679100
							CHANNELS 3 Xrotation Yrotation Zrotation
							End Site
							{
								OFFSET 0.000000 10.009018 0.000000
							}
						}
					}
				}
			}
			JOINT LBackpack_Strap
			{
				OFFSET 15.223200 -7.719803 -6.610900
				CHANNELS 3 Xrotation Yrotation Zrotation
				End Site
				{
					OFFSET 0.000000 16.040596 0.000000
				}
			}
			JOINT RBackpack_Strap
			{
				OFFSET -15.223000 -7.719803 -6.610900
				CHANNELS 3 Xrotation Yrotation Zrotation
				End Site
				{
					OFFSET 0.000000 16.040596 0.000000
				}
			}
		}
	}
	JOINT BoyFacialAnim_Joint
	{
		OFFSET 1.000000 -82.208099 -1.550900
		CHANNELS 3 Xrotation Yrotation Zrotation
		End Site
		{
			OFFSET 0.000000 30.012791 0.000000
		}
	}
}
MOTION
Frames: 4
Frame Time: 0.016667
-0.011583 48.754890 1.122638 0.144531 0.155173 0.936596 0.000000 0.000000 -0.000000 -91.315237 -6.423156 11.345606 82.454153 6.242664 0.212782 10.075574 -7.284519 -5.921167 -0.000000 -0.000000 0.000000 -0.000000 -0.000000 0.000000 -0.000000 0.000002 -0.000000 -92.208162 7.729892 -7.455683 82.463182 -5.943912 -1.840578 11.083551 0.323766 6.986197 0.000000 0.000000 -0.000000 0.000000 0.000000 -0.000000 -0.000002 -0.000001 0.000000 10.430383 0.027195 -1.545301 -0.199258 0.213327 -0.355463 -0.199581 0.248527 -0.300880 -1.001767 -1.284342 0.469464 -8.883496 -4.327061 -5.321561 0.000000 -0.000000 -0.000001 0.000000 -0.000000 -0.000001 0.000000 -0.000000 -0.000001 0.823521 -15.262029 -7.868751 4.746710 -21.216444 -54.862234 0.000048 -62.197513 0.000061 31.062952 4.315258 41.770240 6.610613 1.798224 20.801491 2.716407 20.172586 -24.389163 0.000002 -0.000001 -0.000000 -0.235315 2.798381 -26.913116 0.396823 2.121290 -21.189299 -0.000001 -0.000001 -0.000004 1.299136 7.334313 -16.511088 0.329942 1.940092 -19.302244 0.000001 0.000001 -0.000003 1.797298 9.807913 -14.184149 0.205908 1.541091 -15.220207 0.000001 0.000001 -0.000000 2.041320 10.867553 -13.918925 0.168513 1.396432 -13.761327 0.000002 0.000001 -0.000003 0.000002 -0.000001 0.000003 3.171091 -4.378723 8.782885 -3.950245 37.253371 63.733615 -0.000021 55.137932 0.000016 43.537306 4.741020 -36.277935 -9.383510 -1.613343 -17.604715 3.557094 -24.337033 34.656844 -0.000003 -0.000001 0.000002 2.957831 1.012869 13.529993 0.472464 -2.045715 26.006736 -0.000001 -0.000001 -0.000000 0.105536 -3.664964 2.525401 0.584987 -2.261681 29.000437 0.000002 -0.000001 0.000001 0.456462 -7.644283 4.306126 0.107456 -0.995712 12.318849 0.000001 -0.000001 -0.000001 -11.162306 -10.227909 7.169806 0.029116 -0.520539 6.403055 0.000002 -0.000001 0.000002 -0.000001 0.000001 -0.000004 0.000000 0.000000 0.000000 0.000000 0.000000 0.000000 0.000000 0.000000 0.000000 0.000000 0.000000 0.000000 0.000000 0.000000 0.000000 -0.000001 0.000000 0.000000 0.000000 0.000000 0.000000 0.000000 0.000000 0.000000 -0.000001 0.000000 0.000000 0.000000 0.000000 -0.000000 0.000000 0.000000 -0.000000 0.000000 0.000000 -0.000000 
-0.021409 48.793419 1.070686 -0.414118 0.138001 1.031546 -0.000000 -0.000000 0.000000 -90.675658 -6.279221 11.389435 82.365893 6.218820 0.212816 10.076949 -7.284130 -5.895894 0.000000 0.000000 -0.000000 0.000000 0.000000 -0.000000 0.000001 0.000001 0.000001 -91.634269 7.683677 -7.563208 82.420330 -5.818971 -1.841095 11.079725 0.311666 6.862986 -0.000000 0.000000 -0.000000 -0.000000 0.000000 -0.000000 -0.000001 0.000001 0.000000 10.212729 -0.004518 -1.542463 0.247318 0.210143 -0.363243 0.247051 0.242483 -0.311429 -0.863843 -1.257150 0.466748 -9.376979 -4.249638 -5.115970 0.000000 -0.000000 0.000000 0.000000 -0.000000 0.000000 0.000000 -0.000000 0.000000 0.823221 -15.329304 -7.716560 4.455920 -21.455905 -54.700840 -0.000019 -61.301269 -0.000018 31.122372 4.160825 41.654383 7.239343 2.016984 20.046604 2.611805 19.816558 -24.507489 -0.000000 -0.000003 -0.000000 -0.214978 2.733560 -26.352483 0.412475 2.161190 -21.608034 -0.000002 0.000001 -0.000005 1.260126 7.277773 -16.156657 0.350263 1.997100 -19.893279 -0.000001 0.000001 -0.000001 1.754445 9.708186 -14.032351 0.229570 1.625499 -16.076489 0.000002 0.000001 -0.000000 1.966978 10.727163 -13.936871 0.189195 1.478276 -14.585669 0.000003 0.000001 -0.000000 0.000003 0.000004 -0.000002 3.130740 -4.188131 9.128581 -3.788744 37.492449 62.416687 -0.000005 54.701431 0.000012 38.426098 6.434214 -35.338760 -9.061911 -1.287305 -15.921465 3.457724 -24.287002 33.909973 -0.000004 -0.000001 0.000001 2.928271 1.054563 13.023772 0.477735 -2.056471 26.153962 -0.000001 -0.000001 0.000003 0.100439 -3.662363 2.284177 0.616267 -2.317153 29.783282 -0.000001 -0.000001 -0.000000 0.445635 -7.590682 4.232003 0.120840 -1.055144 13.066949 -0.000003 0.000001 0.000000 -11.183130 -10.282711 7.459221 0.034667 -0.567824 6.987816 0.000003 -0.000001 0.000000 -0.000000 -0.000001 0.000001 0.000000 0.000000 -0.000000 0.000000 0.000000 -0.000000 0.000000 0.000000 -0.000000 0.000000 0.000000 -0.000000 0.000000 0.000000 -0.000000 0.000000 0.000000 -0.000000 0.000000 0.000000 -0.000000 0.000000 0.000000 -0.000000 0.000000 0.000000 -0.000000 0.000000 0.000000 -0.000000 0.000000 0.000000 -0.000000 -0.000000 -0.000000 0.000000 
-0.029558 48.838120 1.023296 -0.957145 0.130996 1.122423 0.000000 0.000000 0.000000 -90.046489 -6.130087 11.423628 82.268556 6.188535 0.213043 10.078656 -7.283190 -5.854500 -0.000000 0.000000 -0.000000 -0.000000 0.000000 -0.000000 -0.000001 0.000002 0.000001 -91.060369 7.642063 -7.676434 82.373051 -5.706071 -1.841577 11.068653 0.300413 6.751676 0.000000 0.000000 0.000000 0.000000 0.000000 0.000000 -0.000000 -0.000000 -0.000000 10.001996 -0.031898 -1.537187 0.733887 0.214279 -0.373962 0.733709 0.243699 -0.324692 -0.761071 -1.231934 0.475966 -10.032740 -4.165826 -4.919810 0.000000 0.000000 -0.000000 0.000000 0.000000 -0.000000 0.000000 0.000000 -0.000000 0.826523 -15.600726 -7.588856 4.308935 -21.403928 -54.419771 -0.000067 -61.023772 -0.000082 30.015427 3.616513 41.129552 7.896442 2.237082 19.250664 2.502434 19.443472 -24.632775 0.000002 -0.000000 -0.000001 -0.192907 2.666147 -25.764498 0.429205 2.202875 -22.047209 -0.000001 -0.000000 -0.000004 1.219809 7.218232 -15.785021 0.372189 2.056630 -20.513199 0.000001 0.000001 -0.000003 1.710081 9.602937 -13.874534 0.255659 1.713411 -16.971924 -0.000001 0.000002 -0.000002 1.888949 10.579968 -13.956016 0.212100 1.563651 -15.448804 -0.000001 0.000001 -0.000000 -0.000002 0.000003 -0.000002 3.082113 -3.976042 9.440666 -3.601782 37.650769 61.027419 0.000011 54.399011 0.000005 33.444264 7.545266 -34.227273 -8.709552 -0.934998 -14.170913 3.357953 -24.234199 33.129143 -0.000003 0.000003 -0.000001 2.897919 1.099082 12.492950 0.483290 -2.067736 26.308366 -0.000001 0.000001 0.000002 0.095044 -3.659466 2.031262 0.649808 -2.374770 30.602666 0.000001 0.000001 0.000000 0.434448 -7.534138 4.154915 0.135687 -1.117131 13.849629 -0.000003 0.000000 0.000002 -11.204841 -10.340627 7.762707 0.041009 -0.617384 7.601111 -0.000001 0.000000 0.000000 0.000003 -0.000001 0.000003 0.000001 0.000000 -0.000000 0.000001 0.000000 -0.000000 0.000001 0.000000 -0.000000 0.000001 0.000000 -0.000000 0.000001 0.000000 -0.000000 0.000001 0.000000 -0.000000 0.000001 0.000000 -0.000000 0.000001 0.000000 -0.000000 0.000001 0.000000 -0.000000 0.000001 -0.000000 -0.000000 0.000001 -0.000000 -0.000000 0.000000 0.000000 0.000000 
-0.033908 48.887611 0.974236 -1.484703 0.128492 1.211570 0.000000 -0.000000 -0.000000 -89.427216 -5.974679 11.447957 82.156541 6.163600 0.213334 10.087611 -7.281921 -5.802131 0.000000 -0.000001 0.000000 0.000000 -0.000001 0.000000 -0.000000 0.000001 0.000001 -90.490157 7.604827 -7.794041 82.309817 -5.596609 -1.842124 11.064026 0.290260 6.644337 0.000000 0.000000 0.000000 0.000000 0.000000 0.000000 -0.000000 -0.000000 0.000000 9.796478 -0.057095 -1.530593 1.248923 0.222378 -0.387395 1.248840 0.248826 -0.340488 -0.681236 -1.208184 0.490104 -10.819937 -4.081876 -4.732362 -0.000000 -0.000000 -0.000000 -0.000000 -0.000000 -0.000000 -0.000000 -0.000000 -0.000000 0.832473 -15.979339 -7.489319 4.238269 -21.173436 -54.038876 -0.000020 -61.236662 -0.000027 28.124117 2.742005 40.412324 8.575144 2.451619 18.424802 2.389392 19.058782 -24.763349 -0.000002 -0.000002 0.000000 -0.169346 2.597116 -25.157458 0.446794 2.245830 -22.500639 0.000001 0.000001 -0.000005 1.178803 7.156449 -15.401462 0.395501 2.117838 -21.153221 0.000001 -0.000000 -0.000002 1.664874 9.493852 -13.712421 0.284002 1.803618 -17.895360 0.000002 0.000002 -0.000000 1.808336 10.428081 -13.976051 0.237090 1.651358 -16.339438 0.000002 0.000002 -0.000003 0.000002 0.000001 -0.000002 3.026187 -3.737179 9.731909 -3.408170 37.697593 59.557569 0.000002 54.333376 0.000004 28.528894 8.185329 -32.859856 -8.343280 -0.556688 -12.373133 3.258128 -24.179438 32.324359 -0.000002 0.000001 0.000000 2.867303 1.145879 11.945012 0.489065 -2.079354 26.467770 -0.000003 0.000000 0.000005 0.089389 -3.656421 1.770186 0.685273 -2.433677 31.448045 0.000000 0.000001 -0.000005 0.423086 -7.475552 4.075730 0.151873 -1.180841 14.656906 -0.000000 -0.000001 0.000000 -11.227097 -10.400884 8.075994 0.048114 -0.668457 8.234235 -0.000002 0.000000 0.000000 -0.000000 -0.000002 -0.000000 0.000000 -0.000000 -0.000000 0.000000 -0.000000 -0.000000 0.000000 -0.000000 -0.000000 0.000000 -0.000000 -0.000000 0.000000 -0.000000 0.000000 -0.000001 -0.000000 0.000000 0.000000 -0.000000 -0.000000 0.000000 -0.000000 0.000000 -0.000001 -0.000000 0.000000 0.000001 -0.000000 -0.000000 0.000001 -0.000000 -0.000000 0.000000 -0.000000 -0.000000 
